<?xml version="1.0" encoding="UTF-8"?>
<!DOCTYPE svg PUBLIC "-//W3C//DTD SVG 1.1//EN" "http://www.w3.org/Graphics/SVG/1.1/DTD/svg11.dtd">
<!-- Creator: CorelDRAW -->
<svg xmlns="http://www.w3.org/2000/svg" xml:space="preserve" width="2048px" height="2048px" style="shape-rendering:geometricPrecision; text-rendering:geometricPrecision; image-rendering:optimizeQuality; fill-rule:evenodd; clip-rule:evenodd"
viewBox="0 0 2048 2048"
 xmlns:xlink="http://www.w3.org/1999/xlink">
 <defs>
  <style type="text/css">
   <![CDATA[
    .fil1 {fill:none}
    .fil0 {fill:#424242}
   ]]>
  </style>
 </defs>
 <g id="Layer_x0020_1">
  <metadata id="CorelCorpID_0Corel-Layer"/>
  <g id="_290583224">
   <path id="_290583920" class="fil0" d="M493.624 1150.63l0 0zm57.5835 -215.472c13.8567,-125.563 18.9201,-272.832 20.3232,-360.659 0.27874,-17.4437 0.392126,-34.904 0.392126,-50.0563 0,-29.2725 3.20788,-57.8847 6.07914,-83.4993 3.87402,-34.5508 7.07717,-63.1241 0.682678,-75.6627 -5.51221,-10.8083 -26.4555,-7.74568 -78.965,19.0358 -19.6134,10.0028 -62.3587,37.7303 -97.6158,60.5989 -19.8957,12.9059 -37.5083,24.3295 -46.8378,29.9729 -43.4209,26.2607 -78.5292,60.1607 -92.5371,107.405 -14.2725,48.1323 -7.31693,111.137 33.7323,195.565 17.0032,34.9701 37.05,64.4823 56.0953,92.5205 29.5181,43.4552 56.7567,83.5524 68.7142,135.677 6.37441,27.7855 21.8469,75.4879 41.0233,109.784 10.8626,19.4256 21.8729,33.8315 30.6603,34.7977 0.223229,-0.00708662 0.445276,-0.0106299 0.669686,-0.00590552l0.188977 -0.00236221c20.3374,0 36.2469,-60.8764 48.4583,-144.729 -0.0992127,-2.05394 0.201969,-4.08662 0.861024,-5.99292 2.90197,-20.4768 5.59016,-42.2363 8.0752,-64.7481z"/>
   <path id="_290583728" class="fil0" d="M1554.37 1150.63l0 0zm230.895 -568.337c-14.0079,-47.2441 -49.1162,-81.1442 -92.5371,-107.405 -9.32953,-5.64331 -26.9421,-17.0669 -46.8378,-29.9729 -35.2571,-22.8685 -78.0024,-50.5961 -97.6158,-60.5989 -52.5095,-26.7815 -73.4528,-29.8441 -78.965,-19.0358 -6.39449,12.5386 -3.19134,41.1118 0.682678,75.6627 2.87126,25.6146 6.07914,54.2268 6.07914,83.4993 0,15.1524 0.113386,32.6126 0.392126,50.0563 1.40315,87.8268 6.46654,235.096 20.3232,360.659 2.48504,22.513 5.17323,44.2737 8.0752,64.7504 0.659056,1.90512 0.960237,3.9378 0.861024,5.99056 12.2114,83.8524 28.1209,144.729 48.4583,144.729l0.188977 -0.0011811c0.22441,-0.0011811 0.446457,0.00236221 0.669686,0.00944883 8.78741,-0.966142 19.7977,-15.3721 30.6603,-34.7977 19.1764,-34.2957 34.6488,-81.9981 41.0233,-109.784 11.9575,-52.1244 39.1961,-92.2217 68.7142,-135.677 19.0453,-28.0382 39.0922,-57.5504 56.0953,-92.5205 41.0492,-84.4276 48.0048,-147.432 33.7323,-195.565z"/>
   <path id="_290583872" class="fil0" d="M1435.93 423.039c-82.2355,-71.9457 -246.631,-107.828 -411.7,-107.828l0 -0.0625985c-165.321,0 -330.003,36.0272 -412.161,107.893 -0.687402,6.87638 -1.48819,14.0209 -2.31614,21.4028 -2.75197,24.5587 -5.82874,51.9945 -5.82874,79.9985 0,10.8071 -0.15,27.5445 -0.517323,50.5571 -1.41851,88.7552 -6.51733,237.429 -20.4484,363.659 -2.44252,22.1315 -5.21457,43.6217 -8.35512,64.0749 12.1205,28.6099 24.7477,55.3323 37.3973,82.1032 53.0103,112.181 106.417,225.207 106.417,424.738 0,39.4111 24.5481,73.2284 59.2701,91.969 15.0307,8.11182 31.8922,13.4032 49.4587,15.1299 0.656693,-0.0814961 1.3252,-0.124016 2.00315,-0.124016 1.49528,0 2.94331,0.205512 4.31693,0.589371 0.627166,0.0307087 1.25551,0.056693 1.88386,0.0779528 20.5713,0.700394 41.9008,-3.48307 62.2607,-13.689 48.0969,-24.1099 91.2083,-81.7997 108.33,-187.801 -70.4103,-12.2847 -127.317,-93.3686 -127.317,-146.06 0,-82.0619 72.6709,-61.0252 139.769,-61.2485 70.7953,-0.236221 150.983,-23.074 150.983,61.2485 0,52.6914 -56.9091,133.78 -127.322,146.061 17.1201,106.005 60.2363,163.69 108.334,187.8 20.3587,10.2047 41.6882,14.3906 62.2607,13.689 0.628347,-0.0212599 1.25669,-0.0472441 1.88386,-0.0779528 1.37362,-0.383859 2.82166,-0.589371 4.31693,-0.589371 0.679134,0 1.34764,0.0425197 2.00433,0.124016 17.5654,-1.72677 34.4268,-7.01693 49.4575,-15.1299 34.7221,-18.7406 59.2701,-52.5579 59.2701,-91.969 0,-199.531 53.4083,-312.555 106.416,-424.737 12.6496,-26.7709 25.2768,-53.4933 37.3973,-82.1032 -3.14055,-20.4543 -5.9126,-41.9433 -8.35512,-64.076 -13.9311,-126.23 -19.0299,-274.904 -20.4484,-363.659 -0.367323,-23.0126 -0.517323,-39.75 -0.517323,-50.5571 0,-28.004 -3.07677,-55.4398 -5.82874,-79.9985 -0.827953,-7.38308 -1.62874,-14.5288 -2.31614,-21.4051zm-241.023 369.949c0,-38.9563 21.5032,-100.765 60.4595,-100.765 38.9551,0 100.765,31.5792 100.765,70.5355 0,38.9551 -61.8095,70.5355 -100.765,70.5355 -38.9563,0 -60.4595,-1.35118 -60.4595,-40.3063zm-402.274 -100.765c38.9563,0 60.4595,61.8083 60.4595,100.765 0,38.9551 -21.5032,40.3063 -60.4595,40.3063 -38.9551,0 -100.765,-31.5803 -100.765,-70.5355 0,-38.9563 61.8095,-70.5355 100.765,-70.5355z"/>
   <path id="_290583368" class="fil0" d="M1136.14 1632.03c-46.0347,-23.0764 -87.9485,-70.8319 -112.14,-151.786 -24.1914,80.954 -66.1052,128.71 -112.14,151.786 -21,10.5272 -42.8044,15.9142 -64.2012,16.9654 6.06851,19.7563 22.8201,37.8237 46.7492,52.1056 32.8666,19.6169 78.6615,31.7504 129.592,31.7504 50.9304,0 96.7253,-12.1335 129.592,-31.7504 23.9292,-14.2819 40.6807,-32.3481 46.7492,-52.1056 -21.3957,-1.05 -43.2012,-6.43819 -64.2012,-16.9654z"/>
  </g>
 </g>
 <rect class="fil1" width="2048" height="2048"/>
</svg>
